<?xml version="1.0" encoding="utf-8"?>
<!-- Generator: Adobe Illustrator 24.3.0, SVG Export Plug-In . SVG Version: 6.00 Build 0)  -->
<svg version="1.1" id="Layer_1" xmlns="http://www.w3.org/2000/svg" xmlns:xlink="http://www.w3.org/1999/xlink" x="0px" y="0px"
	 viewBox="0 0 500 500" style="enable-background:new 0 0 500 500;" xml:space="preserve">
<style type="text/css">
	.st0{fill:#0133CD;}
</style>
<g>
	<path class="st0" d="M61.7,326.8c27.8,29.3,67.8,47.4,107.6,51.7V454c0,14.2,11.6,25.8,25.8,25.8h211.5c8.8,0,9.2-14.1,0-14.1
		H195.2c-6.5,0-11.7-5.3-11.7-11.7V346c0-6.5,5.3-11.7,11.7-11.7h269.4c6.5,0,11.7,5.3,11.7,11.7V454c0,6.5-5.3,11.7-11.7,11.7
		h-20.3c-8.8,0-9.2,14.1,0,14.1h20.3c14.2,0,25.8-11.6,25.8-25.8V346c0-14.2-11.6-25.8-25.8-25.8h-13.4c0-27.8,0-66.3,0-94.1
		c0-3.9-3.2-7-7-7H375c0-14.7,0-45.5,0-60.4c0-3.9-3.2-7-7-7h-6c-20.3-76-94.1-132.7-173.1-131.4c-21.9,0-43.2,3.9-63.5,11.6
		c-8.3,3.1-3.6,16.4,5,13.2c16.5-6.2,33.8-9.8,51.5-10.5v148.4L76.9,77.9c6.6-6.1,13.8-11.7,21.4-16.7c7.4-4.8,0-16.8-7.7-11.8
		C-4.1,109.1-18.3,248.9,61.7,326.8L61.7,326.8z M437.1,286.5H375v-19.6h62.1L437.1,286.5z M298.8,233.2h62.1v19.6h-62.1V233.2z
		 M298.8,266.9h62.1v19.6h-62.1V266.9z M360.9,219.1h-62.1v-19.6h62.1V219.1z M360.9,165.7v19.6h-62.1v-19.6H360.9z M284.7,286.5
		h-62.1v-19.6h62.1V286.5z M222.6,300.6h62.1v19.6h-62.1V300.6z M298.8,300.6h62.1v19.6h-62.1V300.6z M375,320.2v-19.6h62.1v19.6
		H375z M437.1,252.8H375v-19.6h62.1V252.8z M347.3,151.6h-55.5c-3.9,0-7,3.2-7,7c0,27.8,0,66.3,0,94.1h-69.1c-3.9,0-7,3.2-7,7
		c0,14.9,0,45.6,0,60.4h-13.4c-14.2,0-25.8,11.6-25.8,25.8v18.3c-34.6-4.1-66.8-18.9-92.5-42.5l117-117c1.3-1.3,2.1-3.1,2.1-5V34.5
		C264.6,36.3,328,85.9,347.3,151.6z M66.9,87.9l112,112l-112,112C9,251.5,9.4,147.8,66.9,87.9L66.9,87.9z"/>
	<path class="st0" d="M318.2,372.3c9.3-0.3,9.3-13.8,0-14.1h-29.4c-3.9,0-7,3.2-7,7V435c0,3.9,3.2,7,7,7h29.4
		c9.3-0.3,9.3-13.8,0-14.1h-22.3v-20.8h20.2c9.3-0.3,9.3-13.8,0-14.1h-20.2v-20.8H318.2z"/>
	<path class="st0" d="M207.4,433.9c0,4.2,2.5,8.2,7.2,8.2c0.6,0,14.4-0.1,19.9-0.2c45.3-0.8,45.3-83-0.7-82.3h-19.3
		c-4,0-7,3.2-7,7.1L207.4,433.9L207.4,433.9z M233.8,373.8c27.8-0.5,27.1,53.7,0.4,54.1c-2.9,0.1-8.3,0.1-12.7,0.1
		c-0.1-18.1,0-36.1,0-54.2H233.8z"/>
	<path class="st0" d="M366.7,357.6h-20.4c-3.9,0-7,3.2-7,7c0,17.4,0,52.9,0,70.4c0,3.5,3.5,7,7.1,7h24c25.4-0.2,35.5-32.8,15-47.3
		C396.8,379.8,385.8,357.5,366.7,357.6L366.7,357.6z M366.7,371.7c12.1,0.5,12.1,17.8,0,18.3c-4.5,0-8.9,0-13.4,0v-18.3H366.7z
		 M370.3,427.9c-3.1,0-11.1,0-17,0.1v-23.8c5.7,0,11.3,0,17,0C386.1,404.8,386.1,427.3,370.3,427.9L370.3,427.9z"/>
	<path class="st0" d="M425.7,442.4c3.9,0,7-3.2,7-7V372h12.5c9.3-0.3,9.3-13.8,0-14.1h-38.9c-9.3,0.3-9.3,13.8,0,14.1h12.3v63.3
		C418.7,439.3,421.8,442.4,425.7,442.4z"/>
</g>
</svg>
