<?xml version="1.0" encoding="utf-8"?>
<!-- Generator: Adobe Illustrator 24.3.0, SVG Export Plug-In . SVG Version: 6.00 Build 0)  -->
<svg version="1.1" id="Layer_1" xmlns="http://www.w3.org/2000/svg" xmlns:xlink="http://www.w3.org/1999/xlink" x="0px" y="0px"
	 viewBox="0 0 512 512" style="enable-background:new 0 0 512 512;" xml:space="preserve">
<style type="text/css">
	.st0{fill:#0133CD;}
</style>
<g>
	<path class="st0" d="M21.3,349.9c0,14.1,11.5,25.6,25.6,25.6h44.7c6.2,13.7,31.1,37.5,126.9,41.9c0.2,0.6,0.4,1.3,0.6,1.9
		c-14.4,9.4-24.1,24.5-26.6,41.5h-60.3c-18.9,0-34.1,15.3-34.1,34.1c0,9.4,7.6,17.1,17.1,17.1h273.1c9.4,0,17.1-7.6,17.1-17.1
		c0-18.9-15.3-34.1-34.1-34.1h-60.4c-2.4-17-12.1-32.2-26.5-41.4c0.2-0.7,0.5-1.3,0.6-2c95.9-4.4,120.7-28.2,126.9-41.9h53.2
		c14.1,0,25.6-11.5,25.6-25.6c0-14.1-11.5-25.6-25.6-25.6H455c1-2.7,1.5-5.6,1.6-8.5v-85.3c14.1,0,25.6-11.5,25.6-25.6v-59.7
		c0-26-16.8-48.9-41.5-56.9c20.5-19.5,21.3-51.9,1.8-72.4S390.5-5.5,370,14c-20.5,19.5-21.3,51.9-1.8,72.4c0.6,0.6,1.2,1.2,1.8,1.8
		c-24.7,7.9-41.5,30.9-41.5,56.9v59.7c0,14.1,11.5,25.6,25.6,25.6v85.3c0,2.9,0.6,5.8,1.6,8.5h-10.1c-14.1,0-25.6,11.5-25.6,25.6
		c0,14.1,11.5,25.6,25.6,25.6h44.5c-11.8,9.6-41.4,21.8-105.7,24.8c-5-18.1-23.7-28.6-41.8-23.6c-11.4,3.2-20.4,12.1-23.6,23.6
		c-64.8-3.1-94.4-15.4-106-24.8h53.3c14.1,0,25.6-11.5,25.6-25.6c0-14.1-11.5-25.6-25.6-25.6h-10.1c1-2.7,1.5-5.6,1.6-8.5v-85.3
		c14.1,0,25.6-11.5,25.6-25.6v-59.7c0-26-16.8-48.9-41.5-56.9c20.5-19.5,21.3-51.9,1.8-72.4S91.9-5.5,71.4,14s-21.3,51.9-1.8,72.4
		c0.6,0.6,1.2,1.2,1.8,1.8c-24.7,7.9-41.5,30.9-41.5,56.9v59.7c0,14.1,11.5,25.6,25.6,25.6v85.3c0,2.9,0.6,5.8,1.6,8.5H46.9
		C32.8,324.3,21.3,335.7,21.3,349.9z M405.3,17.1c18.9,0,34.1,15.3,34.1,34.1s-15.3,34.1-34.1,34.1c-18.9,0-34.1-15.3-34.1-34.1
		S386.5,17.1,405.3,17.1z M371.2,315.7v-92c5.4-4.8,8.5-11.7,8.5-18.9v-59.7c0-4.7-3.8-8.5-8.5-8.5s-8.5,3.8-8.5,8.5v59.7
		c0,4.7-3.8,8.5-8.5,8.5c-4.7,0-8.5-3.8-8.5-8.5v-59.7c0-23.6,19.1-42.6,42.7-42.7h34.1c23.6,0,42.6,19.1,42.7,42.7v59.7
		c0,4.7-3.8,8.5-8.5,8.5s-8.5-3.8-8.5-8.5v-59.7c0-4.7-3.8-8.5-8.5-8.5s-8.5,3.8-8.5,8.5v59.7c0,7.2,3.1,14.1,8.5,18.9v92
		c0,4.7-3.8,8.5-8.5,8.5h-17.1V204.8c0-4.7-3.8-8.5-8.5-8.5s-8.5,3.8-8.5,8.5v119.5h-17.1C375,324.3,371.2,320.4,371.2,315.7z
		 M337.1,349.9c0-4.7,3.8-8.5,8.5-8.5h119.5c4.7,0,8.5,3.8,8.5,8.5c0,4.7-3.8,8.5-8.5,8.5h-58.4c-0.4-0.1-0.8-0.2-1.3-0.3
		c-0.5,0-1,0.1-1.5,0.3h-58.3C340.9,358.4,337.1,354.6,337.1,349.9z M388.3,494.9H115.2c0-9.4,7.6-17.1,17.1-17.1h238.9
		C380.6,477.9,388.3,485.5,388.3,494.9z M210,460.8c2.2-10.9,8.6-20.6,17.9-26.8c13.2,13,34.4,13,47.6,0c2.3,1.5,4.4,3.3,6.4,5.2
		c5.9,5.9,10,13.4,11.6,21.6H210z M251.7,392.5c9.4,0,17.1,7.6,17.1,17.1c0,9.4-7.6,17.1-17.1,17.1s-17.1-7.6-17.1-17.1
		C234.7,400.2,242.3,392.5,251.7,392.5z M174.9,349.9c0,4.7-3.8,8.5-8.5,8.5H46.9c-4.7,0-8.5-3.8-8.5-8.5c0-4.7,3.8-8.5,8.5-8.5
		h119.5C171.1,341.3,174.9,345.2,174.9,349.9z M106.7,17.1c18.9,0,34.1,15.3,34.1,34.1s-15.3,34.1-34.1,34.1S72.5,70.1,72.5,51.2
		S87.8,17.1,106.7,17.1z M72.5,315.7v-92c5.4-4.8,8.5-11.7,8.5-18.9v-59.7c0-4.7-3.8-8.5-8.5-8.5s-8.5,3.8-8.5,8.5v59.7
		c0,4.7-3.8,8.5-8.5,8.5s-8.5-3.8-8.5-8.5v-59.7c0-23.6,19.1-42.6,42.7-42.7h34.1c23.6,0,42.6,19.1,42.7,42.7v59.7
		c0,4.7-3.8,8.5-8.5,8.5s-8.5-3.8-8.5-8.5v-59.7c0-4.7-3.8-8.5-8.5-8.5s-8.5,3.8-8.5,8.5v59.7c0,7.2,3.1,14.1,8.5,18.9v92
		c0,4.7-3.8,8.5-8.5,8.5h-17.1V204.8c0-4.7-3.8-8.5-8.5-8.5c-4.7,0-8.5,3.8-8.5,8.5v119.5H81.1C76.4,324.3,72.5,320.4,72.5,315.7z"
		/>
</g>
</svg>
