<?xml version="1.0" encoding="utf-8"?>
<!-- Generator: Adobe Illustrator 24.3.0, SVG Export Plug-In . SVG Version: 6.00 Build 0)  -->
<svg version="1.1" id="Layer_1" xmlns="http://www.w3.org/2000/svg" xmlns:xlink="http://www.w3.org/1999/xlink" x="0px" y="0px"
	 viewBox="0 0 600 450" style="enable-background:new 0 0 600 450;" xml:space="preserve">
<style type="text/css">
	.st0{fill:#CADCFF;}
	.st1{fill:#53BC91;}
	.st2{fill:#FFFFFF;}
	.st3{fill:#1E1E1E;}
	.st4{fill:#0133CD;}
	.st5{fill:#FCB47E;}
	.st6{fill:#FFB761;}
	.st7{fill:#F98B38;}
	.st8{fill:#FFC457;}
	.st9{fill:#FFE9AB;}
	.st10{fill:#FFF9EE;}
	.st11{fill:#C4E8E8;}
	.st12{fill:#FFD188;}
	.st13{fill:#CCCCCC;}
	.st14{fill:#FF6B57;}
	.st15{fill:#FEFEFE;}
	.st16{opacity:0.71;}
	.st17{opacity:0.77;}
</style>
<g>
	<g>
		<g>
			<path class="st0" d="M104.2,387.4C53,372-23,288.9,21,220.2c37.3-58.1,98-41.4,156.8-82.9c33.7-23.8,39.8-46.6,64.1-71.4
				c36.3-37.1,82.5-60.2,133.9-57.5C679.3,13.1,730.6,526.7,104.2,387.4z"/>
		</g>
	</g>
	<g>
		<g>
			<g>
				<path class="st1" d="M444.2,295.8l10.7,4.9c0.4-0.4,0.9-0.9,1.3-1.3c0.7-0.6,1.3-1.1,2.1-1.6c7.1-5,16.8-7.1,24.5-3.1
					c5.1,2.6,9,7.7,14.7,8.4c9.2,1.2,15.5-9.6,24.3-12.4c10.1-3.2,21.9,4.4,31.3-0.4c7.6-3.8,9.4-13.9,7-22.2
					c-0.3-1.1-0.7-2.2-1.2-3.3c-4.3-9.4-13.1-16.6-23.1-18.8c-10-2.3-21.1,0.5-29,7.1c-8.3,7-13.7,18.4-24.2,21.1
					c-5.1,1.3-10.5,0.3-15.7,1.2c-4.5,0.8-9.2,3.6-13.4,7.6c-3.4,3.2-6.4,7.1-8.6,11.3C444.7,294.8,444.5,295.3,444.2,295.8z"/>
			</g>
		</g>
		<g>
			<g>
				<g>
					<g>
						<path class="st2" d="M447.6,297.7l-1.2-1.2c0.4-0.4,0.9-0.9,1.4-1.3c1.4-1.3,2.9-2.6,4.4-3.7c4.1-3.1,8.8-5,13.4-6.9
							c0.6-0.3,1.2-0.5,1.9-0.8c6.7-2.8,13-2,19.1-1.1c5.9,0.8,12,1.7,18.6-1c4.8-1.9,8.7-5.3,12.5-8.7c4.6-4,9.3-8.2,15.7-9.7
							c7.3-1.7,18.9,1.4,27,3.8l-0.5,1.7c-4.6-1.4-18.5-5.6-26.1-3.8c-5.9,1.4-10.3,5.2-14.9,9.3c-3.9,3.4-7.9,7-13,9
							c-7,2.8-13.4,1.9-19.5,1.1c-6.1-0.8-11.9-1.6-18.2,1c-0.6,0.3-1.3,0.5-1.9,0.8c-4.7,1.9-9.1,3.8-13,6.7
							c-1.5,1.1-2.9,2.3-4.3,3.6C448.5,296.9,448,297.3,447.6,297.7z"/>
					</g>
				</g>
			</g>
		</g>
		<g>
			<g>
				<path class="st1" d="M455.9,224.9c0.5,8.3,0.6,18.6-6.7,22.6c-3,1.6-6.7,1.7-9.7,3.2c-5.2,2.6-7.6,8.9-7.7,14.7
					c-0.1,7.2,0.6,15.6,1.4,23.5c0.1,0.7,0.1,1.3,0.2,2l18.5,8.4c0.1-0.6,0.2-1.2,0.3-1.8c0.2-1.7,0.4-3.6,0.5-5.4
					c0.2-3,0.5-6.2,0.9-9.1c1.3-9,4.4-16.6,15.2-16.4c4.6,0.1,9.3,2.9,13.7,1.5c7-2.2,7.2-11.8,10.5-18.4c3.1-6.1,9.6-9.9,16.2-11.7
					c6.6-1.8,13.6-2,20.4-3c15-2.2,29.7-8.7,39.6-20.2c9.8-11.5,13.9-28.4,8.1-42.4c-5.8-14-22.5-23.2-36.9-18.6
					c-15.4,5-25,23-41.1,24.5c-6,0.5-12-1.4-18.1-0.9c-9.9,0.9-18.1,8.8-22,18C455.4,204.7,455.2,215,455.9,224.9z"/>
			</g>
		</g>
		<g>
			<g>
				<g>
					<g>
						<path class="st2" d="M441.8,292l-1.7-0.4c0.6-2.3,1.1-4.9,1.7-7.5c1.8-8.9,3.8-18.9,10.5-24c14.8-11.4,18-22.3,21.1-32.9
							c2.9-10.1,5.6-19.5,18.8-27.1c4.2-2.4,12.2-3.1,21.5-3.9c21.4-1.8,50.8-4.4,59.5-29.9l1.6,0.6c-9.1,26.6-39.1,29.2-61,31.1
							c-9,0.8-16.8,1.4-20.7,3.7c-12.6,7.2-15.1,15.9-18,26.1c-3,10.3-6.4,22.1-21.7,33.8c-6.2,4.7-8.1,14.4-9.9,23
							C442.9,287.1,442.4,289.7,441.8,292z"/>
					</g>
				</g>
			</g>
		</g>
		<g>
			<g>
				<g>
					<g>
						<path class="st3" d="M529.7,235.9l-0.3-1.7c16.2-2.4,30.1-9.4,39-19.9l1.3,1.1C560.6,226.2,546.4,233.5,529.7,235.9z"/>
					</g>
				</g>
			</g>
		</g>
		<g>
			<g>
				<g>
					<g>
						<path class="st3" d="M452.6,300.6l-20-9.1l-0.3-2.5c-0.7-7-1.5-16-1.4-23.6c0.1-5.5,2.2-12.5,8.1-15.4
							c1.6-0.8,3.3-1.2,4.9-1.6c1.7-0.4,3.3-0.8,4.8-1.6l0.8,1.5c-1.7,0.9-3.5,1.3-5.2,1.7c-1.6,0.4-3.1,0.8-4.5,1.5
							c-5.2,2.6-7.1,8.9-7.2,13.9c-0.1,7.5,0.7,16.5,1.4,23.4l0.2,1.5l17,7.8c0-0.2,0.1-0.4,0.1-0.6c0.2-1.9,0.4-3.9,0.5-5.4
							l0.1-0.8c0.2-2.8,0.5-5.7,0.9-8.4c1.2-8.1,4.1-17.3,16-17.2c0,0,0.1,0,0.1,0c2,0,3.9,0.5,5.7,1c2.7,0.7,5.3,1.3,7.7,0.6
							c4.4-1.4,5.9-6.1,7.4-11.1c0.7-2.3,1.5-4.7,2.5-6.8l1.6,0.8c-1,2-1.7,4.3-2.4,6.5c-1.6,5.2-3.3,10.7-8.6,12.3
							c-2.9,0.9-5.8,0.2-8.7-0.6c-1.8-0.4-3.6-0.9-5.3-0.9c0,0-0.1,0-0.1,0c-10.5-0.1-13.1,7.8-14.2,15.7c-0.4,2.7-0.6,5.6-0.9,8.3
							l-0.1,0.8c-0.1,1.5-0.3,3.5-0.5,5.4c-0.1,0.6-0.2,1.2-0.3,1.8L452.6,300.6z"/>
					</g>
				</g>
			</g>
		</g>
		<g>
			<g>
				<g>
					<g>
						<path class="st3" d="M455,225c-0.6-9.3-0.7-20.1,3.4-29.8c4.3-10.4,13.2-17.7,22.7-18.6c3.1-0.3,6.2,0.1,9.2,0.4
							c2.9,0.3,5.9,0.7,8.8,0.4l0.2,1.7c-3.1,0.3-6.2-0.1-9.2-0.5c-2.9-0.3-6-0.7-8.9-0.4c-8.8,0.8-17.2,7.7-21.2,17.5
							c-3.9,9.4-3.9,20-3.3,29L455,225z"/>
					</g>
				</g>
			</g>
		</g>
		<g>
			<g>
				<g>
					<g>
						<path class="st3" d="M579.9,194.8l-1.7-0.4c1.6-7.6,1-15.1-1.8-21.6c-5.9-14.2-22.3-22.4-35.9-18.1c-6.7,2.2-12.5,7-18,11.7
							c-2,1.7-4.1,3.5-6.3,5.1l-1.1-1.4c2.1-1.6,4.2-3.4,6.2-5.1c5.7-4.8,11.6-9.8,18.6-12.1c14.4-4.6,31.8,4.1,38,19.1
							C580.9,179,581.6,186.8,579.9,194.8z"/>
					</g>
				</g>
			</g>
		</g>
		<g>
			<g>
				<g>
					<g>
						<path class="st3" d="M497.4,303.9c-3.8-0.5-6.9-2.8-9.8-5c-1.7-1.2-3.4-2.5-5.2-3.5l0.8-1.5c1.9,1,3.7,2.3,5.4,3.6
							c2.9,2.2,5.6,4.3,9,4.7L497.4,303.9z"/>
					</g>
				</g>
			</g>
		</g>
		<g>
			<g>
				<g>
					<g>
						<path class="st3" d="M553.6,291l-0.8-1.6c7.3-3.7,8.8-13.5,6.6-21.2c-0.3-1.1-0.7-2.1-1.2-3.2c-4.1-9.1-12.8-16.1-22.5-18.3
							c-9.8-2.2-20.6,0.5-28.2,6.9l-1.1-1.3c8-6.8,19.4-9.6,29.7-7.3c10.3,2.3,19.4,9.7,23.7,19.3c0.5,1.1,0.9,2.2,1.2,3.4
							C563.5,276.2,561.7,286.9,553.6,291z"/>
					</g>
				</g>
			</g>
		</g>
	</g>
	<g>
		<g>
			<g>
				<path class="st1" d="M260.3,222.3c7.3-0.4,16.3-0.4,19.7,6.1c1.4,2.7,1.4,5.8,2.7,8.5c2.2,4.6,7.7,6.7,12.8,6.8
					c6.3,0.1,13.7-0.4,20.6-1.1c0.6-0.1,1.2-0.1,1.8-0.2l7.5-16.2c-0.5-0.1-1-0.2-1.6-0.2c-1.5-0.2-3.1-0.3-4.7-0.5
					c-2.6-0.2-5.4-0.5-8-0.9c-7.8-1.2-14.5-4-14.3-13.5c0.1-4.1,2.6-8.1,1.5-12c-1.8-6.1-10.3-6.4-16-9.3
					c-5.4-2.7-8.6-8.5-10.1-14.3c-1.5-5.8-1.6-11.9-2.5-17.9c-1.8-13.1-7.4-26.1-17.4-34.8c-10-8.7-24.7-12.4-37-7.4
					c-12.3,5-20.5,19.5-16.5,32.2c4.2,13.5,20,22.1,21.1,36.2c0.4,5.3-1.4,10.5-0.9,15.8c0.7,8.7,7.6,15.9,15.6,19.4
					C242.6,222.5,251.6,222.7,260.3,222.3z"/>
			</g>
		</g>
		<g>
			<g>
				<g>
					<g>
						<path class="st2" d="M318.9,235.1l-0.4,1.5c-2-0.6-4.3-1-6.6-1.5c-7.7-1.6-16.5-3.5-21-9.4c-9.9-13.1-19.4-15.9-28.6-18.7
							c-8.8-2.6-17.1-5.1-23.6-16.7c-2.1-3.7-2.6-10.7-3.2-18.8c-1.4-18.8-3.4-44.5-25.7-52.3l0.5-1.4c23.2,8.1,25.2,34.4,26.7,53.6
							c0.6,7.9,1.1,14.8,3.1,18.2c6.2,11.1,13.8,13.3,22.7,16c9,2.7,19.3,5.8,29.4,19.2c4.1,5.5,12.6,7.2,20.1,8.8
							C314.6,234.1,316.8,234.5,318.9,235.1z"/>
					</g>
				</g>
			</g>
		</g>
		<g>
			<g>
				<g>
					<g>
						<path class="st3" d="M270.4,157.7l-1.5,0.2c-2-14.2-8-26.4-17.1-34.3l1-1.1C262.2,130.6,268.4,143.1,270.4,157.7z"/>
					</g>
				</g>
			</g>
		</g>
		<g>
			<g>
				<g>
					<g>
						<path class="st3" d="M326.5,225.7l-8.1,17.5l-2.2,0.2c-6.2,0.6-14.1,1.2-20.7,1.1c-4.9-0.1-10.9-2.1-13.5-7.2
							c-0.7-1.4-1-2.9-1.4-4.3c-0.4-1.5-0.7-2.9-1.4-4.2l1.4-0.7c0.8,1.5,1.1,3,1.5,4.6c0.3,1.4,0.6,2.8,1.2,4
							c2.2,4.6,7.7,6.3,12.1,6.4c6.6,0.1,14.4-0.5,20.5-1.1l1.3-0.1l6.9-14.8c-0.2,0-0.4-0.1-0.6-0.1c-1.6-0.2-3.4-0.4-4.7-0.5
							l-0.7-0.1c-2.4-0.2-5-0.5-7.4-0.8c-7.1-1.1-15.1-3.7-14.9-14.1c0,0,0-0.1,0-0.1c0-1.7,0.5-3.4,0.9-5c0.6-2.4,1.2-4.6,0.6-6.7
							c-1.2-3.9-5.3-5.2-9.7-6.6c-2-0.6-4.1-1.3-5.9-2.2l0.7-1.4c1.7,0.9,3.7,1.5,5.7,2.2c4.6,1.5,9.3,3,10.7,7.6
							c0.8,2.5,0.1,5.1-0.6,7.6c-0.4,1.5-0.8,3.1-0.9,4.7c0,0,0,0.1,0,0.1c-0.2,9.2,6.8,11.5,13.6,12.6c2.4,0.4,4.9,0.6,7.3,0.8
							l0.7,0.1c1.3,0.1,3.1,0.3,4.8,0.5c0.5,0.1,1.1,0.2,1.6,0.2L326.5,225.7z"/>
					</g>
				</g>
			</g>
		</g>
		<g>
			<g>
				<g>
					<g>
						<path class="st3" d="M260.3,223c-8.1,0.4-17.6,0.4-26.1-3.2c-9.1-3.9-15.4-11.7-16.1-20c-0.2-2.7,0.1-5.5,0.5-8.1
							c0.3-2.5,0.7-5.2,0.5-7.7l1.5-0.1c0.2,2.7-0.1,5.4-0.5,8c-0.3,2.6-0.7,5.2-0.5,7.8c0.7,7.7,6.6,15.1,15.2,18.7
							c8.2,3.5,17.4,3.5,25.4,3.1L260.3,223z"/>
					</g>
				</g>
			</g>
		</g>
		<g>
			<g>
				<g>
					<g>
						<path class="st3" d="M234.8,113.4l-0.3,1.5c-6.6-1.4-13.2-1-18.9,1.4c-12.4,5-19.8,19.4-16.1,31.2c1.8,5.9,6.1,11,10.1,15.9
							c1.5,1.8,3,3.7,4.4,5.5l-1.2,0.9c-1.4-1.8-2.9-3.7-4.4-5.5c-4.2-5-8.5-10.2-10.4-16.4c-3.9-12.6,3.8-27.8,17-33.1
							C221,112.4,227.9,111.9,234.8,113.4z"/>
					</g>
				</g>
			</g>
		</g>
	</g>
	<g>
		<g>
			<g>
				<g>
					<g>
						<path class="st3" d="M457.2,113.3v319.2c0,4.5-3.6,8.1-8.1,8.1H292.3c-4.5,0-8.1-3.6-8.1-8.1V113.3c0-4.5,3.6-8.1,8.1-8.1
							h156.9C453.6,105.2,457.2,108.8,457.2,113.3z"/>
					</g>
				</g>
			</g>
		</g>
	</g>
	<g>
		<g>
			<path class="st4" d="M449.9,113.3v319.2c0,4.5-3.6,8.1-8.1,8.1H284.9c-4.5,0-8.1-3.6-8.1-8.1V113.3c0-4.5,3.6-8.1,8.1-8.1h156.9
				C446.3,105.2,449.9,108.8,449.9,113.3z"/>
		</g>
	</g>
	<g>
		<g>
			<g>
				<g>
					<g>
						<path class="st2" d="M441.6,140v265c0,5.4-4.1,9.8-9.1,9.8H294.4c-5.1,0-9.1-4.4-9.1-9.8V140c0-5.4,4.1-9.8,9.1-9.8h138.1
							C437.5,130.2,441.6,134.6,441.6,140z"/>
					</g>
				</g>
			</g>
		</g>
	</g>
	<g>
		<path class="st3" d="M385,116.8h-43.6c-0.7,0-1.2,0.5-1.2,1.2c0,0.7,0.5,1.2,1.2,1.2H385c0.7,0,1.2-0.5,1.2-1.2
			C386.2,117.4,385.7,116.8,385,116.8z"/>
	</g>
	<g>
		<g>
			<g>
				<g>
					<g>
						<g>
							<g>
								<path class="st5" d="M329.9,419.9L313,403.1l14.6-12l13.9,16.6c0,0,1,2.2-2,7.9C336.5,421.2,329.9,419.9,329.9,419.9z"/>
							</g>
						</g>
					</g>
				</g>
			</g>
		</g>
		<g>
			<g>
				<g>
					<g>
						<g>
							<g>
								<g>
									<g>
										<path class="st3" d="M331.7,432.6l38.6-22c1.3-0.8,1.8-2.5,0.9-3.8c0,0,0,0,0,0c-0.2-0.3-0.4-0.6-0.6-0.8
											c-0.7-0.9-1.6-1.8-2.4-2.2c-3.2-1.4-7.4-0.5-15.2,0.6c-4.9,0.7-9.4,0.5-11.5,0.4c-0.7,0-1.2,0.4-1.4,1
											c-3.4,11.8-9,12.9-12.1,10.6c-2.4-1.7-3.7-0.4-3.7,0.5c-0.1,2.9,2.8,9.6,4.3,12.9c0.2,0.4,0.3,0.7,0.4,1
											c0.3,0.6,0.5,1,0.5,1C329.8,432.7,330.9,433.1,331.7,432.6z"/>
									</g>
								</g>
							</g>
						</g>
					</g>
				</g>
			</g>
			<g>
				<g>
					<g>
						<g>
							<path class="st2" d="M353.5,405.6c0-0.7-0.1-1.3-0.1-1.3l-0.8,0.2c0,0,0.7,3.2-1.4,4.8l0.5,0.6
								C353.2,408.6,353.5,406.8,353.5,405.6z"/>
						</g>
					</g>
				</g>
				<g>
					<g>
						<g>
							<path class="st2" d="M357.7,405.2c0-0.7-0.1-1.3-0.1-1.3l-0.8,0.2c0,0,0.7,3.2-1.4,4.8l0.5,0.6
								C357.4,408.2,357.7,406.4,357.7,405.2z"/>
						</g>
					</g>
				</g>
				<g>
					<g>
						<g>
							<path class="st2" d="M338.7,416.3l-0.6-0.5c0,0.1-5,5.8-9.8,3.2l-0.4,0.7C333.3,422.6,338.6,416.4,338.7,416.3z"/>
						</g>
					</g>
				</g>
			</g>
			<g>
				<g>
					<g>
						<g>
							
								<rect x="332.9" y="420.7" transform="matrix(0.874 -0.4859 0.4859 0.874 -161.0473 221.097)" class="st2" width="25.9" height="0.8"/>
						</g>
					</g>
				</g>
				<g>
					<g>
						<g>
							
								<rect x="359.7" y="411.3" transform="matrix(0.8741 -0.4858 0.4858 0.8741 -154.3224 228.0562)" class="st2" width="6.1" height="0.8"/>
						</g>
					</g>
				</g>
			</g>
		</g>
	</g>
	<g>
		<path class="st6" d="M283.7,367.1c7.2-42.8-60-41.8-65.3-44.5c-5.5-2.7-51.8-32.7-69.2-62c-7.6-12.7-23.6-21.7-39.5-25.7
			c-9.1-0.2-34,1.8-49.4,26.9v39.2l40.4,73.9l97.6,25.3l62.5-5.4l19.7-18.4L283.7,367.1z"/>
	</g>
	<g>
		<g>
			<path class="st7" d="M128.8,329.1c-29.5-7.3-43.7-35-43.9-35.3l1.1-0.6c0.1,0.3,14.1,27.4,43,34.6L128.8,329.1z"/>
		</g>
		<g>
			<path class="st7" d="M124.5,329.2c-13.9,0-25.3-7.5-25.4-7.6l0.7-1.1c0.1,0.1,12.9,8.5,27.7,7.2l0.1,1.3
				C126.6,329.2,125.6,329.2,124.5,329.2z"/>
		</g>
	</g>
	<g>
		<g>
			<path class="st0" d="M178.1,118c6.8-5.5,13-12.1,15.9-20.3c2.9-8.2,1.9-18.3-4.3-24.4c-5-5-12.7-6.7-19.8-5.9
				c-7.1,0.8-13.7,3.8-20,7.1c-12.1,6.3-82.3,49.8-57.9,64.1C115.7,152.4,159.9,132.8,178.1,118z"/>
		</g>
	</g>
	<g>
		<g>
			<g>
				<g>
					<g>
						<g>
							<g>
								
									<ellipse transform="matrix(0.948 -0.3184 0.3184 0.948 -104.7327 158.9592)" class="st8" cx="433.9" cy="399.9" rx="39.8" ry="39.8"/>
							</g>
						</g>
						<g>
							<g>
								<g>
									
										<ellipse transform="matrix(0.8335 -0.5525 0.5525 0.8335 -148.6946 306.3289)" class="st9" cx="433.9" cy="399.9" rx="28.7" ry="28.7"/>
								</g>
							</g>
						</g>
						<g>
							<g>
								<path class="st3" d="M414.7,435.7c-15.2-8.2-24.1-25.6-20.7-43.5c2.1-10.7,8.1-19.9,17.1-26c9-6.1,19.8-8.3,30.5-6.2
									c4.8,0.9,9.3,2.7,13.4,5.2l-0.8,1.4c-3.9-2.4-8.3-4.1-12.8-4.9c-10.2-2-20.6,0.1-29.3,6c-8.6,5.8-14.5,14.7-16.5,24.9
									c-4.1,21.1,9.8,41.6,30.9,45.7c9.7,1.9,19.6,0,28-5.2l0.9,1.4c-8.7,5.4-19.1,7.3-29.2,5.4
									C422.1,439,418.2,437.6,414.7,435.7z"/>
							</g>
						</g>
						<g>
							<g>
								<path class="st3" d="M466.2,424.7l-1.3-1c3.7-4.8,6.2-10.3,7.4-16.4c2.1-11-0.6-22.3-7.4-31.2l1.3-1
									c7.1,9.2,9.9,21.1,7.7,32.5C472.6,413.9,470,419.6,466.2,424.7z"/>
							</g>
						</g>
					</g>
					<path class="st8" d="M443.1,392.8c0-0.5,0-1.4-0.3-2.3l4,1.2l0.3,0.1l0.2-0.2l2.7-2.3l0.7-0.6l-0.9-0.3l-18.7-5.6l-0.3-0.1
						l-0.2,0.2l-2.7,2.3l-0.7,0.6l0.9,0.3l3.9,1.1c0.1,0,0.3,0.1,0.7,0.2c1.2,0.4,4,1.4,4.8,3.8l-8-2.4l-0.2-0.1l-0.2,0.2l-2.7,2.2
						l-0.8,0.6l0.9,0.3l10.6,3.2c-0.2,0.5-0.7,1.4-1.9,2.1c-1.7,1-4.2,1.1-7.3,0.1c-0.5-0.2-1.1-0.3-1.6-0.6l-0.5-0.2l-0.2,0.5
						l-0.7,2.5l0,0.2l0.1,0.2l6.8,17.1l0.1,0.2l0.2,0.1l4.8,1.4l1,0.3l-0.4-1l-6.8-16.6c2.4,0.5,8.2,1.1,11.3-4.8l3.3,1l0.3,0.1
						l0.2-0.2l2.6-2.3l0.7-0.6l-0.9-0.3L443.1,392.8z"/>
				</g>
				<g>
					<g>
						<g>
							<g>
								<g>
									<g>
										<g>
											<g>
												<path class="st10" d="M418.3,369.7c1.9,2.7,2.6,5.7,2.5,9l0,0c2.6-1.9,5.5-3,8.8-2.9l0,0c-1.9-2.7-2.6-5.7-2.5-9l0,0
													C424.6,368.7,421.7,369.8,418.3,369.7z"/>
											</g>
										</g>
									</g>
								</g>
							</g>
						</g>
					</g>
					<g>
						<g>
							<g>
								<g>
									<g>
										<g>
											<g>
												<path class="st10" d="M435.1,427c1.1,1.6,1.5,3.3,1.4,5.2l0,0c1.5-1.1,3.2-1.7,5.1-1.7l0,0c-1.1-1.6-1.5-3.3-1.4-5.2
													l0,0C438.8,426.4,437.1,427.1,435.1,427z"/>
											</g>
										</g>
									</g>
								</g>
							</g>
						</g>
					</g>
				</g>
			</g>
		</g>
		<g>
			<g>
				<g>
					<g>
						<g>
							<rect x="479.3" y="425.6" class="st8" width="77.3" height="15"/>
						</g>
					</g>
					<g>
						<g>
							<rect x="495.6" y="409.1" class="st8" width="77.3" height="15"/>
						</g>
					</g>
					<g>
						<g>
							<rect x="479.4" y="392.6" class="st8" width="77.3" height="15"/>
						</g>
					</g>
					<g>
						<g>
							<g>
								<g>
									<g>
										<g>
											<rect x="547.7" y="392.6" class="st3" width="1.6" height="15"/>
										</g>
									</g>
								</g>
							</g>
						</g>
					</g>
					<g>
						<g>
							<g>
								<g>
									<g>
										<g>
											<rect x="539.6" y="392.6" class="st3" width="1.6" height="15"/>
										</g>
									</g>
								</g>
							</g>
						</g>
					</g>
					<g>
						<g>
							<g>
								<g>
									<g>
										<g>
											<rect x="515.2" y="392.6" class="st3" width="1.6" height="15"/>
										</g>
									</g>
								</g>
							</g>
						</g>
					</g>
					<g>
						<g>
							<g>
								<g>
									<g>
										<g>
											<rect x="498.9" y="392.6" class="st3" width="1.6" height="15"/>
										</g>
									</g>
								</g>
							</g>
						</g>
					</g>
					<g>
						<g>
							<g>
								<rect x="563.9" y="409.1" class="st3" width="1.6" height="15"/>
							</g>
						</g>
					</g>
					<g>
						<g>
							<g>
								<g>
									<g>
										<g>
											<rect x="555.8" y="409.1" class="st3" width="1.6" height="15"/>
										</g>
									</g>
								</g>
							</g>
						</g>
					</g>
					<g>
						<g>
							<g>
								<rect x="531.4" y="409.1" class="st3" width="1.6" height="15"/>
							</g>
						</g>
					</g>
					<g>
						<g>
							<g>
								<g>
									<g>
										<g>
											<rect x="523.2" y="409.1" class="st3" width="1.6" height="15"/>
										</g>
									</g>
								</g>
							</g>
						</g>
					</g>
					<g>
						<g>
							<g>
								<rect x="515.1" y="425.6" class="st3" width="1.6" height="15"/>
							</g>
						</g>
					</g>
					<g>
						<g>
							<g>
								<rect x="498.8" y="425.6" class="st3" width="1.6" height="15"/>
							</g>
						</g>
					</g>
					<g>
						<g>
							<g>
								<rect x="490.7" y="425.6" class="st3" width="1.6" height="15"/>
							</g>
						</g>
					</g>
					<g>
						<g>
							<g>
								<g>
									<g>
										<g>
											<rect x="479.4" y="407.4" class="st3" width="76.8" height="1.6"/>
										</g>
									</g>
								</g>
							</g>
						</g>
					</g>
					<g>
						<g>
							<g>
								<rect x="495.7" y="424.1" class="st3" width="77.2" height="1.6"/>
							</g>
						</g>
					</g>
				</g>
				<g>
					<g>
						<g>
							<g>
								<g>
									<g>
										<g>
											<path class="st10" d="M501.5,414.3c3,1.5,5.1,3.9,6.5,6.8l0,0c1.4-2.9,3.5-5.3,6.5-6.8l0,0c-3-1.5-5.1-3.9-6.5-6.8l0,0
												C506.6,410.4,504.6,412.7,501.5,414.3z"/>
										</g>
									</g>
								</g>
							</g>
						</g>
					</g>
				</g>
				<g>
					<g>
						<g>
							<g>
								<g>
									<g>
										<g>
											<path class="st10" d="M527.7,433.6c1.7,0.9,2.9,2.2,3.7,3.9l0,0c0.8-1.7,2-3,3.7-3.9l0,0c-1.7-0.9-2.9-2.2-3.7-3.9l0,0
												C530.6,431.4,529.4,432.8,527.7,433.6z"/>
										</g>
									</g>
								</g>
							</g>
						</g>
					</g>
				</g>
				<g>
					<g>
						<g>
							<g>
								<g>
									<g>
										<g>
											<path class="st10" d="M544,400.7c1.7,0.9,2.9,2.2,3.7,3.9l0,0c0.8-1.7,2-3,3.7-3.9l0,0c-1.7-0.9-2.9-2.2-3.7-3.9l0,0
												C546.9,398.5,545.7,399.8,544,400.7z"/>
										</g>
									</g>
								</g>
							</g>
						</g>
					</g>
				</g>
			</g>
			<g>
				<g>
					<g>
						<rect x="572.1" y="409.1" class="st3" width="1.6" height="16.6"/>
					</g>
				</g>
			</g>
		</g>
	</g>
	<g>
		<path class="st3" d="M197.1,306.7c0,0,66.4,9,76.2,12.5c11.7,4.2,70,71.1,70,71.1L317.6,413l-64.1-57.7l-22.5,3.6l-29.4-4.6
			c0,0-15.8-5.5-20.3-5.8c-14.3-1-38.5,7.4-49.3-13l52.8-36.6L197.1,306.7z"/>
	</g>
	<g>
		<g>
			<g>
				<g>
					<g>
						<path class="st5" d="M82.6,216.2c3.7-0.3,6.2-0.3,6.8-0.3c0.8-0.1,1.5-1,2.8-1.6c2.9-1.4,8.4-3.5,12.3-2.7
							c0.5,0.1,0.5,0.7-0.2,0.9c-1.3,0.4-3.5,0.7-3.4,1.1c0.2,0.7,6.2-1.3,6.6,0.2c0.3,1.2-7,1.8-6.9,2.2c0.1,0.7,6.5-1.2,6.8,0.3
							c0.3,1.4-5.7,1.1-5.7,1.6c0,0.5,4.7-0.1,4.9,0.8c0.4,1.5-7.4,1.5-7.5,2.1c-0.3,1,3.7,1,3.5,2.2c-0.1,1.2-5.3,0.4-6.3,0.4
							c-2.3-0.2-3.4-1.4-6.2,0c-1.5,0.7-3,1.5-4.6,2.2L82.6,216.2z"/>
					</g>
				</g>
			</g>
		</g>
	</g>
	<g>
		<g>
			<g>
				<g>
					<g>
						<path class="st5" d="M139.7,243.1c-10.3-6-14-12.8-14-12.8l-17.8,3.1c0,0,5.7,10.7,4.8,20.9c-0.6,6.9,9.8,12.6,25.8,12.1
							C154.4,265.8,144.4,245.8,139.7,243.1z"/>
					</g>
				</g>
			</g>
		</g>
	</g>
	<g>
		<g>
			<path class="st3" d="M330.7,401.6l-0.9,0.7c-10.9-12.4-51.4-57.4-67-62.5c-4.7-1.5-15.2-1.1-27.4-0.7
				c-21.7,0.8-48.6,1.7-65.2-6.2c0,0,0.6-0.7,0.8-0.9c16.3,7.6,42.9,6.6,64.3,5.9c12.8-0.5,22.9-0.8,27.8,0.8
				C279.3,344,319.6,389.1,330.7,401.6z"/>
		</g>
	</g>
	<g>
		<g>
			<path class="st3" d="M198.2,307.6c-0.6,0-1.3,0-1.9,0c-5.8,0-10.3-0.8-10.8-0.9c0.2-0.4,0.3-0.7,0.5-1.1
				c1.2,0.2,5.4,0.8,10.6,0.8l0.5,0.3c0,0,0.4,0,1.1,0.1L198.2,307.6z"/>
		</g>
	</g>
	<g>
		<path class="st2" d="M127.7,338.7c0,0,48.3,1.8,61.5-41.8c0,0-19.7-8.8-30-44c0,0-6.4-22-20.4-20.5l-7.3,4.7c0,0,6.7,5.5,4.5,8.8
			c-2.7,4-20.1-1.9-20.1-1.9s-8.8-2.4-14.6-0.1c0,0,10.9,27.1-12.1,35.1C89.1,279,112.7,303.5,127.7,338.7z"/>
	</g>
	<g>
		<g>
			<path class="st11" d="M151.9,343.7C120.3,330.3,98.2,276.5,98,276l1.1-0.4c0.2,0.5,22.1,53.9,53.3,67.1L151.9,343.7z"/>
		</g>
	</g>
	<g>
		<g>
			<path class="st2" d="M159.7,254.6L137,233.5c0.1-0.1,8.6-12,11.5-18.6c5-11.4,0.8-21-8.8-10.3c-3,3.4-9.2,10.1-9.2,10.1
				l-14.4-10.1c0,0,6.4-9.2,10-13.3c13.5-15.4,25.2-19.1,35.8-15.2c5.4,2,9.3,5.9,11.4,11.4c3.4,9.1,3.2,22.2-2.6,41.2
				C166.6,242.2,159.7,254.6,159.7,254.6z"/>
		</g>
	</g>
	<g>
		<g>
			<path class="st3" d="M173.7,333.3l-0.3,1.1c-3.2-1-5.8-2.9-7-3.8c0,0,0,0,0,0l0.9-0.7c0,0,0,0,0.1,0.1
				C168.6,330.8,171,332.4,173.7,333.3z"/>
		</g>
	</g>
	<g>
		<g>
			<g>
				<g>
					<g>
						<path class="st5" d="M124.7,200.5c0,0,17.5,27.6,8.9,31.4c-8.6,3.8-18.6,3-21.2,1.7c-2.6-1.3-6.6-10.3-6.6-10.3
							s-6.3-12.3-2-17C108.3,201.8,118.2,192.8,124.7,200.5z"/>
					</g>
				</g>
			</g>
		</g>
	</g>
	<g>
		<g>
			<path class="st3" d="M102.5,231.5c3,2.5,6,4.9,6,4.9c2.4-1.4,5.2-6,4.5-9c0,0,7.7-4,4-14.1c0,0,14-5.6,9.4-17.8
				c-2.3-6.1-13.3-6.5-20.6-1c-9.4,7-11.1,17-11.1,17C88,217,98.6,228.3,102.5,231.5z"/>
		</g>
	</g>
	<g>
		<g>
			<g>
				<g>
					<path class="st5" d="M110.8,226.3c0.8,1.9,3,2.8,4.9,2.1c1.9-0.8,2.8-3,2.1-4.9c-0.8-1.9-3-2.8-4.9-2.1
						C110.9,222.2,110,224.4,110.8,226.3z"/>
				</g>
			</g>
		</g>
	</g>
	<g>
		<g>
			<path class="st11" d="M159.5,256.1c0-0.1-2.5-14.2-10.9-20c-3.3-2.3-7.2-3-11.5-2.1l-0.2-1.1c4.6-1,8.8-0.2,12.4,2.3
				c8.8,6.1,11.3,20.1,11.4,20.7L159.5,256.1z"/>
		</g>
	</g>
	<g>
		<path class="st3" d="M114.9,215l-0.3-1.1c0.1,0,8.1-2.2,11.9-6.6c1.7-1.9,2.3-4.4,1.8-7.1c-0.6-3-2.5-5.7-5-7l0.5-1
			c2.7,1.4,4.9,4.4,5.6,7.7c0.6,3.1-0.1,5.9-2,8.1C123.3,212.7,115.2,215,114.9,215z"/>
	</g>
	<g>
		<g>
			<path class="st11" d="M132.1,248.4c-6.7,0.7-18.4-4.1-20-4.8l0.4-1c5.6,2.3,20.5,7.4,22.9,3c1.4-2.6-1.9-5.8-1.9-5.8l0.8-0.8
				c0.2,0.2,3.9,3.9,2.1,7.2C135.7,247.5,134.1,248.2,132.1,248.4z"/>
		</g>
	</g>
	<g>
		<path class="st3" d="M327.1,404.8l-9.4,8.3l-31.5-28.4l-32.6-29.3L231,359l-29.4-4.6c0,0-15.8-5.5-20.3-5.8
			c-1.7-0.1-3.6-0.1-5.6,0l-7.6-12.2c0,0,19.5-0.5,42.4,8.5c5.5,2.2,14.5,5.5,23.3,5.4c10-0.1,21.1-5.3,26.3-3.8
			c6.9,2.1,13.2,10.1,21.4,20.4c8.3,10.4,18.1,22.8,28.3,32.2C316.9,405.9,327.1,404.8,327.1,404.8z"/>
	</g>
	<g>
		<path class="st12" d="M279.7,379.3c-11.3,39-32.6,56-42.2,61.8c-0.3,0.2-0.6,0.3-0.9,0.3H98.2c-0.3,0-0.6-0.1-0.9-0.3
			c-10.7-6.6-36.4-27.2-45.9-77.4c-2.1-11.4-3.6-24.4-4-39.2c-0.9-29.5,4.7-49.3,12.9-62.6c0,0,12.3,58.4,44.7,68.2
			c26.4,8,55.8-2.3,82.8,9.5c7,3,13.1,7.8,18,13.7c5.1,6.1,7.6,12.6,14.9,16.7c8.3,4.7,19.3,4.4,28.6,4.6c8,0.1,16.1-0.7,23.9-2.2
			C277.3,371.4,280.8,375.3,279.7,379.3z"/>
	</g>
	<g>
		<g>
			<g>
				<g>
					<g>
						<g>
							<g>
								<path class="st5" d="M297.3,428.8l-5.9-23.1l20.7,9.4l1.5,9.1c0,0-0.3,2.4-5.8,5.8C302.4,433.3,297.3,428.8,297.3,428.8z"/>
							</g>
						</g>
					</g>
				</g>
			</g>
		</g>
		<g>
			<g>
				<g>
					<g>
						<g>
							<g>
								<g>
									<g>
										<path class="st3" d="M292.4,440.6l44.5,0.7c1.5,0,2.8-1.3,2.7-2.8c0,0,0,0,0,0c0-0.3-0.1-0.7-0.1-1
											c-0.1-1.2-0.4-2.4-1-3.1c-2.1-2.8-6.1-4.2-13.4-7.2c-4.5-1.9-8.4-4.4-10.1-5.5c-0.5-0.4-1.3-0.3-1.8,0.2
											c-8.9,8.4-14.3,6.5-15.9,3c-1.2-2.7-2.9-2.2-3.4-1.4c-1.5,2.5-2.5,9.7-2.8,13.3c-0.1,0.4-0.1,0.8-0.1,1
											c-0.1,0.7-0.1,1.1-0.1,1.1C290.8,439.7,291.5,440.6,292.4,440.6z"/>
									</g>
								</g>
							</g>
						</g>
					</g>
				</g>
			</g>
			<g>
				<g>
					<g>
						<g>
							<path class="st2" d="M325,428.5c0.4-0.6,0.5-1.2,0.6-1.2l-0.7-0.2c0,0-1.1,3.1-3.6,3.4l0.1,0.8
								C323.2,431,324.3,429.6,325,428.5z"/>
						</g>
					</g>
				</g>
				<g>
					<g>
						<g>
							<path class="st2" d="M328.8,430.3c0.4-0.6,0.5-1.2,0.6-1.2l-0.7-0.2c0,0-1.1,3.1-3.6,3.4l0.1,0.8
								C327,432.8,328.1,431.4,328.8,430.3z"/>
						</g>
					</g>
				</g>
				<g>
					<g>
						<g>
							<path class="st2" d="M306.8,430.2l-0.3-0.7c-0.1,0-7.2,2.5-10.1-2.3l-0.7,0.4C298.9,432.9,306.7,430.2,306.8,430.2z"/>
						</g>
					</g>
				</g>
			</g>
			<g>
				<g>
					<g>
						<g>
							
								<rect x="310.1" y="425" transform="matrix(2.750037e-02 -0.9996 0.9996 2.750037e-02 -135.8654 736.2245)" class="st2" width="0.8" height="25.9"/>
						</g>
					</g>
				</g>
				<g>
					<g>
						<g>
							
								<rect x="329.4" y="435.4" transform="matrix(2.748513e-02 -0.9996 0.9996 2.748513e-02 -117.588 756.0934)" class="st2" width="0.8" height="6.1"/>
						</g>
					</g>
				</g>
			</g>
		</g>
	</g>
	<g>
		<path class="st13" d="M420.5,283.3H306c-5.1,0-9.2-4.1-9.2-9.2v-77c0-5.1,4.1-9.2,9.2-9.2h114.5c5.1,0,9.2,4.1,9.2,9.2v77
			C429.6,279.2,425.5,283.3,420.5,283.3z"/>
		<g>
			<g>
				<g>
					<polygon class="st3" points="319.5,246.2 318.5,244.8 349.5,224.7 362.2,232.6 402.9,206.9 403.8,208.3 362.2,234.6 
						349.5,226.7 					"/>
				</g>
				<g>
					<g>
						<polygon class="st3" points="401.4,205.9 406.5,205.7 404.1,210.2 						"/>
					</g>
				</g>
			</g>
			<g>
				<g>
					<rect x="318.4" y="253.6" class="st14" width="10.5" height="12"/>
				</g>
				<g>
					<rect x="338.2" y="240.4" class="st15" width="10.5" height="25.1"/>
				</g>
				<g>
					<rect x="358" y="247.9" class="st14" width="10.5" height="17.7"/>
				</g>
				<g>
					<rect x="377.8" y="235.7" class="st15" width="10.5" height="29.8"/>
				</g>
				<g>
					<rect x="397.6" y="221.4" class="st15" width="10.5" height="44.1"/>
				</g>
			</g>
			<g>
				<polygon class="st3" points="417.2,265.9 308.4,265.9 308.4,211.2 310.1,211.2 310.1,264.2 417.2,264.2 				"/>
			</g>
		</g>
	</g>
	<g>
		<g>
			<path class="st6" d="M215.6,441.4H97.7c-10.5-6.3-36.7-26.8-46.3-77.7c14,18.4,27.6,37.3,53.4,39.1c37.6,2.6,54.4-7,88.9,20.3
				C201,428.9,215.6,441.4,215.6,441.4z"/>
		</g>
	</g>
	<g>
		<g>
			<path class="st7" d="M179.8,441.9c-1.1-0.8-2.2-1.6-3.4-2.2c-10-5.9-21.7-7.8-32.9-9c-2.2-0.2-4.4-0.4-6.5-0.6
				c-9.2-0.9-18.8-1.8-27.8-4.5c-21.4-6.6-36.9-22.6-46.1-34.9c-2.9-3.8-5.6-7.9-8.3-12.4l1.1-0.7c2.7,4.5,5.4,8.5,8.3,12.3
				c9.1,12.1,24.3,28,45.4,34.4c8.9,2.7,18.4,3.6,27.5,4.5c2.2,0.2,4.4,0.4,6.5,0.6c11.3,1.2,23.2,3.1,33.4,9.2
				c1.2,0.7,2.4,1.5,3.5,2.3L179.8,441.9z"/>
		</g>
		<g>
			<path class="st7" d="M201.1,441.7c-4-6.4-10.9-11.7-18.8-14.5c-11-3.9-22.8-3.5-34-2.5c-2.9,0.3-5.9,0.6-8.8,0.9
				c-8.5,1-17.2,2-25.9,1.1l0.1-1.3c8.5,0.9,17.2-0.1,25.6-1.1c2.9-0.3,5.9-0.7,8.8-0.9c11.3-1,23.4-1.4,34.6,2.6
				c8.2,2.9,15.3,8.4,19.5,15L201.1,441.7z"/>
		</g>
	</g>
	<g>
		<path class="st9" d="M185.8,348.6c8.1,3.4,15.4,9.8,17.9,18.3c0.8,2.5,0.9,5.6-1.1,7.3c-1.6,1.3-4.1,1.1-5.9,0
			c-1.8-1-3.1-2.7-4.5-4.2c-10.9-12.3-25.8-17-42.7-17.8c-2.9-0.1-13.7-0.4-12.5-6.4C138,340.1,177.7,345.2,185.8,348.6z"/>
	</g>
	<g class="st16">
		<g>
			<polygon class="st2" points="505.6,328.9 484.4,348.3 485.6,349.6 506.8,330.3 			"/>
		</g>
		<g>
			
				<rect x="488.7" y="346.6" transform="matrix(0.6488 -0.7609 0.7609 0.6488 -89.7429 500.5989)" class="st2" width="17.6" height="1.8"/>
		</g>
	</g>
	<g class="st16">
		<g>
			<polygon class="st2" points="428.3,53.9 407.1,73.3 408.3,74.6 429.6,55.3 			"/>
		</g>
		<g>
			
				<rect x="411.4" y="71.6" transform="matrix(0.6488 -0.761 0.761 0.6488 92.404 345.2288)" class="st2" width="17.6" height="1.8"/>
		</g>
	</g>
	<g class="st16">
		<g>
			<polygon class="st2" points="225.9,245.1 204.7,264.4 205.9,265.8 227.2,246.5 			"/>
		</g>
		<g>
			
				<rect x="209" y="262.8" transform="matrix(0.6488 -0.761 0.761 0.6488 -124.1738 258.3428)" class="st2" width="17.6" height="1.8"/>
		</g>
	</g>
	<g class="st17">
		<g>
			<g>
				<g>
					<polygon class="st2" points="302.9,41 297,51.1 308.7,51.1 					"/>
				</g>
			</g>
		</g>
	</g>
	<g class="st17">
		<g>
			<g>
				<g>
					<path class="st2" d="M516.5,136.2h-13.9l7-12L516.5,136.2z M504.8,135h9.5l-4.7-8.2L504.8,135z"/>
				</g>
			</g>
		</g>
	</g>
	<g class="st17">
		<g>
			<g>
				<g>
					<path class="st2" d="M581.7,250.2h-13.9l7-12L581.7,250.2z M570,248.9h9.5l-4.7-8.2L570,248.9z"/>
				</g>
			</g>
		</g>
	</g>
	<g class="st17">
		<g>
			<g>
				<g>
					<path class="st2" d="M34.4,258.5H21.2l6.6-11.4L34.4,258.5z M22.7,257.6h10.2l-5.1-8.9L22.7,257.6z"/>
				</g>
			</g>
		</g>
	</g>
	<g class="st17">
		<g>
			<g>
				<g>
					<polygon class="st2" points="129.8,108.3 124,118.4 135.7,118.4 					"/>
				</g>
			</g>
		</g>
	</g>
	<g>
		<g>
			<path class="st3" d="M316.2,415.8l-10.4-0.3l-24.3-0.7c0,0-3.1-17.6-5.4-31.2c-0.6-3.5-1.2-6.7-1.6-9.4l41.3,37.1L316.2,415.8z"
				/>
		</g>
		<g>
			<path class="st3" d="M316.2,415.8l-10.4-0.3l-29.7-31.9c-0.6-3.5-1.2-6.7-1.6-9.4l41.3,37.1L316.2,415.8z"/>
		</g>
	</g>
	<g>
		<path class="st2" d="M89.1,279c0,0-30.8-10.2-47.6-33.5c-5.8-8.1-3.3-15.1-1.5-18.5c4.7-8.8,14.8-12.5,37.6-15.3
			c6.2-0.8,12.2-0.8,12.2-0.8l2.1,15.2c0,0-27.5,4-26.5,8.8c1.3,6.5,24.5,9,35.8,9C110.3,256.3,107.8,275.3,89.1,279z"/>
	</g>
	<g>
		<g>
			<path class="st11" d="M93,279.9l-0.5-1c0.1,0,8.7-4.3,11.6-13.4c2-6.3,0.9-13.5-3.4-21.3l1-0.5c4.5,8.1,5.6,15.6,3.5,22.2
				C102.1,275.4,93.3,279.7,93,279.9z"/>
		</g>
	</g>
	<g>
		<path class="st7" d="M258.2,365.8c-22.5-6.3-50.6-9.8-50.9-9.8l0.2-1.3c0.3,0,28.5,3.5,51.1,9.9L258.2,365.8z"/>
	</g>
	<g>
		<path class="st7" d="M247.7,369.4c-11-5.5-36.2-8.5-36.4-8.6l0.1-1.3c1,0.1,25.6,3.1,36.9,8.7L247.7,369.4z"/>
	</g>
	<g>
		<path class="st3" d="M286.1,384.7l-15.3-13.7c0,0,6.8-1.9,7.6-2.1c0.9-0.1,11,12.9,11,12.9L286.1,384.7z"/>
	</g>
	<g>
		
			<rect x="294.6" y="365" transform="matrix(0.6679 -0.7442 0.7442 0.6679 -194.3026 350.077)" class="st3" width="1.1" height="55.5"/>
	</g>
	<g>
		<g>
			<path class="st11" d="M91.4,281.3l-0.6-0.9c0.1,0,5.4-3.6,8-11.1l1.1,0.4C97.1,277.4,91.6,281.1,91.4,281.3z"/>
		</g>
	</g>
	<g>
		<g>
			<path class="st11" d="M159.7,253l-1.1-0.2c1.5-8.3-2.1-15.2-2.1-15.2l1-0.5C157.6,237.3,161.2,244.3,159.7,253z"/>
		</g>
	</g>
	<g>
		<g>
			<path class="st3" d="M263,353.2c-4.2,2.3-7.4,2.7-8.7,2.8l-0.8-0.7l-1.7,0.3l1.6-0.7c0,0,3.4-1.8,5.4-5.3l1,0.5
				c-1.1,2-2.6,3.5-3.9,4.4c1.6-0.3,3.8-1,6.5-2.4L263,353.2z"/>
		</g>
	</g>
</g>
</svg>
