<?xml version="1.0" encoding="utf-8"?>
<!-- Generator: Adobe Illustrator 24.3.0, SVG Export Plug-In . SVG Version: 6.00 Build 0)  -->
<svg version="1.1" id="Layer_1" xmlns="http://www.w3.org/2000/svg" xmlns:xlink="http://www.w3.org/1999/xlink" x="0px" y="0px"
	 viewBox="0 0 512 512" style="enable-background:new 0 0 512 512;" xml:space="preserve">
<style type="text/css">
	.st0{fill:#0133CD;}
</style>
<g>
	<path class="st0" d="M315.9,255l-5.7-3.2c0.1-1.3,0.2-2.6,0.2-3.8c0-1.3-0.1-2.5-0.2-3.8l5.7-3.2c3.2-1.8,4.8-5.5,3.8-9
		c-3-11.3-9.1-21.6-17.6-29.6c-2.5-2.4-6.4-2.9-9.4-1.2l-5.7,3.6c-2.4-1.6-4.9-3-7.5-4.3v-6.4c0-3.6-2.4-6.8-5.9-7.7
		c-11.5-3.1-23.6-3.1-35,0c-3.5,0.9-5.9,4.1-5.9,7.7v6.3c-2.5,1.1-4.9,2.5-7.2,4.1l-6.1-3.4c-3.1-1.7-6.9-1.2-9.4,1.2
		c-8.5,8.1-14.6,18.3-17.6,29.6c-0.9,3.5,0.6,7.3,3.8,9l5.7,3.2c-0.1,1.3-0.2,2.6-0.2,3.8c0,1.3,0.1,2.6,0.2,3.8l-5.7,3.2
		c-3.2,1.8-4.8,5.5-3.8,9.1c3,11.3,9.1,21.6,17.6,29.6c2.5,2.4,6.4,2.9,9.4,1.2l5.7-3.6c2.4,1.6,4.9,3,7.5,4.3v6.4
		c0,3.6,2.4,6.8,5.9,7.7c5.7,1.5,11.6,2.3,17.5,2.3h0.8c5.6-0.1,11.2-0.9,16.7-2.4c3.5-0.9,5.9-4.1,5.9-7.7v-6.3
		c2.5-1.1,4.9-2.5,7.2-4.1l6.1,3.4c3.1,1.7,6.9,1.2,9.4-1.2c8.5-8.1,14.6-18.3,17.6-29.6C320.7,260.6,319.1,256.8,315.9,255
		L315.9,255z M293.7,241.3c0.9,4.4,0.9,8.9,0,13.3c-0.7,3.4,0.9,6.8,4,8.5l4.7,2.6c-1.8,4.4-4.3,8.4-7.3,12.1l-0.6-0.3
		c-5.1-2.9-11.5-2.7-16.4,0.5c-1.8,1.2-3.7,2.3-5.7,3.2c-5.4,2.5-8.9,7.9-8.9,13.9v0.3c-2.3,0.3-4.5,0.5-6.8,0.6
		c-2.7,0-5.4-0.2-8.1-0.5v-0.3c0-6-3.4-11.4-8.9-13.9c-2-0.9-3.9-2-5.7-3.2c-4.9-3.2-11.3-3.4-16.4-0.5l-0.6,0.3
		c-3-3.6-5.5-7.7-7.3-12.1l4.7-2.6c3-1.7,4.6-5.1,4-8.5c-0.9-4.4-0.9-9,0-13.4c0.6-3.4-1-6.8-4-8.5l-4.7-2.6
		c1.8-4.4,4.3-8.4,7.3-12.1l0.6,0.3c5.1,2.9,11.5,2.7,16.4-0.5c1.8-1.2,3.7-2.3,5.7-3.2c5.4-2.5,8.9-7.9,8.9-13.9v-0.3
		c4.9-0.8,10-0.8,14.9,0v0.3c0,6,3.4,11.4,8.9,13.9c2,0.9,3.9,2,5.7,3.2c4.9,3.2,11.3,3.4,16.4,0.5l0.6-0.3c3,3.7,5.5,7.7,7.3,12.1
		l-4.7,2.6C294.6,234.5,293,237.9,293.7,241.3L293.7,241.3z"/>
	<path class="st0" d="M256,220c-15.5,0-28,12.5-28,28s12.5,28,28,28s28-12.5,28-28C284,232.5,271.5,220,256,220z M256,260
		c-6.6,0-12-5.4-12-12s5.4-12,12-12s12,5.4,12,12C268,254.6,262.6,260,256,260z"/>
	<path class="st0" d="M176,160c-13.2,0-24,10.8-24,24v136h-8c-4.4,0-8,3.6-8,8v16c0,13.2,10.8,24,24,24h192c13.2,0,24-10.8,24-24
		v-16c0-4.4-3.6-8-8-8h-8V184c0-13.2-10.8-24-24-24H176z M360,344c0,4.4-3.6,8-8,8H160c-4.4,0-8-3.6-8-8v-8h208V344z M344,184v136
		H168V184c0-4.4,3.6-8,8-8h160C340.4,176,344,179.6,344,184z M16,440h16v56c0,4.4,3.6,8,8,8h96c4.4,0,8-3.6,8-8v-56h16
		c4.4,0,8-3.6,8-8c0-2.1-0.8-4.2-2.3-5.7l-72-72c-3.1-3.1-8.2-3.1-11.3,0l-72,72c-3.1,3.1-3.1,8.2,0,11.3
		C11.8,439.2,13.9,440,16,440z M96,488H80v-24h16V488z M88,371.3l52.7,52.7H136c-4.4,0-8,3.6-8,8v56h-16v-32c0-4.4-3.6-8-8-8H72
		c-4.4,0-8,3.6-8,8v32H48v-56c0-4.4-3.6-8-8-8h-4.7L88,371.3z M384,192h112c4.4,0,8-3.6,8-8V24c0-8.8-7.2-16-16-16h-96
		c-8.8,0-16,7.2-16,16v160C376,188.4,379.6,192,384,192z M448,152v24h-16v-24H448z M392,24h96v152h-24v-24h8v-16h-64v16h8v24h-24V24
		z"/>
	<path class="st0" d="M400,40h16v16h-16V40z M432,40h16v16h-16V40z M464,40h16v16h-16V40z M400,72h16v16h-16V72z M432,72h16v16h-16
		V72z M464,72h16v16h-16V72z M400,104h16v16h-16V104z M432,104h16v16h-16V104z M464,104h16v16h-16V104z M56,200
		c0.1-66.2,53.8-119.9,120-120h112v16c0,4.4,3.6,8,8,8c1.5,0,2.9-0.4,4.1-1.1l40-24c3.8-2.3,5-7.2,2.7-11c-0.7-1.1-1.6-2.1-2.7-2.7
		l-40-24c-3.8-2.3-8.7-1-11,2.7c-0.7,1.2-1.1,2.7-1.1,4.1v16H176c-75.1,0.1-135.9,60.9-136,136v128h16V200z M304,62.1l16.4,9.9
		L304,81.9V62.1z M472,320v-80h-16v80c-0.1,66.2-53.8,119.9-120,120h-80v-16c0-4.4-3.6-8-8-8c-1.5,0-2.9,0.4-4.1,1.1l-40,24
		c-3.8,2.3-5,7.2-2.7,11c0.7,1.1,1.6,2.1,2.7,2.7l40,24c3.8,2.3,8.7,1,11-2.7c0.7-1.2,1.1-2.7,1.1-4.1v-16h80
		C411.1,455.9,471.9,395.1,472,320z M240,457.9l-16.4-9.9l16.4-9.9V457.9z"/>
</g>
</svg>
