<?xml version="1.0" encoding="utf-8"?>
<!-- Generator: Adobe Illustrator 24.3.0, SVG Export Plug-In . SVG Version: 6.00 Build 0)  -->
<svg version="1.1" id="Layer_1" xmlns="http://www.w3.org/2000/svg" xmlns:xlink="http://www.w3.org/1999/xlink" x="0px" y="0px"
	 viewBox="0 0 512 512" style="enable-background:new 0 0 512 512;" xml:space="preserve">
<style type="text/css">
	.st0{fill:#0133CD;}
</style>
<g>
	<path class="st0" d="M32,80v105c0,26.5,21.5,48,48,48h105c26.5,0,48-21.5,48-48V80c0-26.5-21.5-48-48-48H80C53.5,32,32,53.5,32,80z
		 M64,80c0-8.8,7.2-16,16-16h105c8.8,0,16,7.2,16,16v105c0,8.8-7.2,16-16,16H80c-8.8,0-16-7.2-16-16V80z M32,432
		c0,26.5,21.5,48,48,48h105c26.5,0,48-21.5,48-48V327c0-26.5-21.5-48-48-48H80c-26.5,0-48,21.5-48,48V432z M64,327
		c0-8.8,7.2-16,16-16h105c8.8,0,16,7.2,16,16v105c0,8.8-7.2,16-16,16H80c-8.8,0-16-7.2-16-16V327z M432,279H327
		c-26.5,0-48,21.5-48,48v105c0,26.5,21.5,48,48,48h105c26.5,0,48-21.5,48-48V327C480,300.5,458.5,279,432,279L432,279z M448,432
		c0,8.8-7.2,16-16,16H327c-8.8,0-16-7.2-16-16V327c0-8.8,7.2-16,16-16h105c8.8,0,16,7.2,16,16V432z M464,116.5h-68.5V48
		c0-8.8-7.2-16-16-16s-16,7.2-16,16v68.5H295c-8.8,0-16,7.2-16,16s7.2,16,16,16h68.5V217c0,8.8,7.2,16,16,16s16-7.2,16-16v-68.5H464
		c8.8,0,16-7.2,16-16S472.8,116.5,464,116.5L464,116.5z"/>
</g>
</svg>
