<?xml version="1.0" encoding="utf-8"?>
<!-- Generator: Adobe Illustrator 24.3.0, SVG Export Plug-In . SVG Version: 6.00 Build 0)  -->
<svg version="1.1" id="Layer_1" xmlns="http://www.w3.org/2000/svg" xmlns:xlink="http://www.w3.org/1999/xlink" x="0px" y="0px"
	 viewBox="0 0 512 512" style="enable-background:new 0 0 512 512;" xml:space="preserve">
<style type="text/css">
	.st0{fill:#0133CD;}
</style>
<g>
	<path class="st0" d="M42.7,51.2h110.9v17.1H42.7L42.7,51.2z M42.7,85.3h110.9v17.1H42.7L42.7,85.3z M42.7,119.5h76.8v17.1H42.7
		V119.5z M42.7,153.6h76.8v17.1H42.7V153.6z M0,494.9h512V512H0L0,494.9z M494,73L459.9,4.7c-2.1-4.2-7.2-5.9-11.4-3.8l0,0L380.2,35
		c-4.2,2.2-5.8,7.3-3.7,11.5c2.1,4.1,7.1,5.8,11.3,3.8l49.4-24.7l-13.5,38.5C364.5,233,211.7,351.5,33.4,366.9l1.5,17.1
		c185-16,343.5-139,405-314.2l13.8-39.4l25.1,50.2c2.2,4.2,7.3,5.8,11.5,3.7C494.4,82.2,496,77.2,494,73z M102.4,409.6H42.7
		c-4.7,0-8.5,3.8-8.5,8.5v51.2c0,4.7,3.8,8.5,8.5,8.5h59.7c4.7,0,8.5-3.8,8.5-8.5v-51.2C110.9,413.4,107.1,409.6,102.4,409.6z
		 M93.9,460.8H51.2v-34.1h42.7V460.8z M196.3,384h-59.7c-4.7,0-8.5,3.8-8.5,8.5v76.8c0,4.7,3.8,8.5,8.5,8.5h59.7
		c4.7,0,8.5-3.8,8.5-8.5v-76.8C204.8,387.8,201,384,196.3,384z M187.7,460.8h-42.7v-59.7h42.7V460.8z M290.1,341.3h-59.7
		c-4.7,0-8.5,3.8-8.5,8.5v119.5c0,4.7,3.8,8.5,8.5,8.5h59.7c4.7,0,8.5-3.8,8.5-8.5V349.9C298.7,345.2,294.8,341.3,290.1,341.3z
		 M281.6,460.8h-42.7V358.4h42.7V460.8z"/>
	<path class="st0" d="M384,281.6h-59.7c-4.7,0-8.5,3.8-8.5,8.5v179.2c0,4.7,3.8,8.5,8.5,8.5H384c4.7,0,8.5-3.8,8.5-8.5V290.1
		C392.5,285.4,388.7,281.6,384,281.6z M375.5,460.8h-42.7V298.7h42.7V460.8z M477.9,162.1h-59.7c-4.7,0-8.5,3.8-8.5,8.5v298.7
		c0,4.7,3.8,8.5,8.5,8.5h59.7c4.7,0,8.5-3.8,8.5-8.5V170.7C486.4,166,482.6,162.1,477.9,162.1L477.9,162.1z M469.3,460.8h-42.7
		V179.2h42.7V460.8z"/>
</g>
</svg>
